# Blender v2.92.0 OBJ File: ''
# www.blender.org
mtllib grass.mtl
o node-0E7938E5_geom-0E7938E5
v 0.236700 0.680000 -0.748600
v 0.055600 -0.088000 0.025300
v -0.675700 0.532900 0.478200
v -0.131600 0.660100 -0.781000
v -0.030100 -0.092200 0.022300
v 0.381200 0.736500 0.624500
v -0.699800 0.706100 0.290100
v 0.003400 -0.091600 -0.006600
v 0.773100 0.685000 0.209600
v 0.281200 0.521300 -0.761800
v -0.125600 -0.048800 0.077900
v 0.778300 0.305100 0.217300
v -0.577000 0.295700 0.715700
v 0.530400 0.475500 0.533100
v -0.001400 -0.034100 -0.081700
v 0.604700 0.199600 -0.644200
v -0.224500 0.089900 -0.153300
v -0.003200 0.022100 0.114500
v 0.679000 0.019800 -0.264400
v 0.306300 0.124300 -0.146500
v 0.279800 0.218400 0.749300
v -0.846900 0.205000 -0.098800
v 0.003100 0.113100 0.347300
v 0.073400 0.015600 -0.081500
v -0.148100 0.299500 -0.834900
v -0.718100 0.310200 0.137000
v 0.162300 -0.033100 0.088100
v -0.062300 0.014500 -0.011800
v 0.279800 0.218400 0.749300
v -0.061600 0.018600 0.819000
v -0.846900 0.205000 -0.098800
v -0.579200 0.001500 -0.510300
v 0.604700 0.199600 -0.644200
v -0.726400 0.105500 -0.334500
v 0.176000 -0.036800 0.125100
v -0.221300 0.568000 -0.092900
v -0.109800 0.123300 0.915300
v 0.018900 -0.046900 -0.145900
v -0.007800 0.536700 0.337600
v 0.597800 0.077300 -0.672000
v -0.135500 -0.047300 0.117200
v 0.277200 0.510600 -0.186800
v 0.602900 0.154100 0.650300
v -0.112100 -0.061500 -0.177900
v 0.187500 0.569200 0.215600
vt 0.020000 0.010000
vt 0.990000 0.010000
vt 0.990000 0.980000
vt 0.990000 0.980000
vt 0.990000 0.010000
vt 0.020000 0.010000
vt 0.020000 0.010000
vt 0.990000 0.010000
vt 0.990000 0.980000
vt 0.020000 0.010000
vt 0.990000 0.010000
vt 0.990000 0.980000
vt 0.990000 0.980000
vt 0.020000 0.010000
vt 0.990000 0.010000
vt 0.990000 0.980000
vt 0.640000 0.010000
vt 0.990000 0.010000
vt 0.010000 0.010000
vt 0.590000 0.010000
vt 0.990000 0.990000
vt 0.990000 0.980000
vt 0.550000 0.010000
vt 0.990000 0.010000
vt 0.990000 0.980000
vt 0.020000 0.010000
vt 0.990000 0.010000
vt 0.990000 0.010000
vt 0.990000 0.980000
vt 0.010000 0.010000
vt 0.990000 0.990000
vt 0.010000 0.010000
vt 0.990000 0.990000
vt 0.010000 0.010000
vt 0.010000 0.990000
vt 0.450000 0.480000
vt 0.990000 0.990000
vt 0.010000 0.990000
vt 0.490000 0.450000
vt 0.990000 0.990000
vt 0.010000 0.990000
vt 0.490000 0.450000
vt 0.010000 0.010000
vt 0.010000 0.990000
vt 0.450000 0.480000
vn -0.7065 -0.4127 -0.5749
vn -0.9199 0.2214 0.3236
vn 0.0474 -0.3112 0.9492
vn -0.3874 0.8391 0.3820
vn -0.2187 0.8358 -0.5036
vn 0.0115 0.9716 0.2365
vn 0.2410 0.9659 -0.0943
vn 0.2014 0.9617 -0.1857
vn 0.3655 0.9081 0.2043
vn -0.3200 0.9412 -0.1083
vn 0.0027 0.9804 0.1968
vn -0.1725 0.9824 -0.0719
vn -0.4505 0.0258 0.8924
vn 0.9895 -0.0625 0.1300
vn -0.7342 0.1875 -0.6526
vn 0.7484 0.0568 -0.6609
usemtl material-315B15FB
s off
f 1/1/1 2/2/1 3/3/1
f 4/4/2 5/5/2 6/6/2
f 7/7/3 8/8/3 9/9/3
f 10/10/4 11/11/4 12/12/4
f 13/13/5 14/14/5 15/15/5
f 16/16/6 17/17/6 18/18/6
f 19/19/7 20/20/7 21/21/7
f 22/22/8 23/23/8 24/24/8
f 25/25/9 26/26/9 27/27/9
f 28/28/10 29/29/10 20/20/10
f 30/30/11 23/23/11 31/31/11
f 32/32/12 17/17/12 33/33/12
f 34/34/13 35/35/13 36/36/13
f 37/37/14 38/38/14 39/39/14
f 40/40/15 41/41/15 42/42/15
f 43/43/16 44/44/16 45/45/16
