# Blender v2.92.0 OBJ File: ''
# www.blender.org
mtllib plane_dirt.mtl
o Cube_Cube.002
v -205.477737 -200.824249 -1.000042
v -205.477737 -200.824249 0.999958
v -205.477737 200.824249 1.000042
v -205.477737 200.824249 -0.999958
v 205.477737 200.824249 1.000042
v 205.477737 200.824249 -0.999958
v 205.477737 -200.824249 0.999958
v 205.477737 -200.824249 -1.000042
vt -0.771637 -2.889000
vt 1.771635 -2.889000
vt 1.771635 -1.194500
vt -0.771637 -1.194500
vt 1.771635 0.500000
vt -0.771637 0.500000
vt 1.771635 2.194501
vt -0.771637 2.194501
vt 1.771635 3.889000
vt -0.771637 3.889000
vt -3.314909 0.500000
vt -3.314909 2.194501
vt 4.314909 0.500000
vt 4.314909 2.194501
vn -1.0000 0.0000 0.0000
vn 0.0000 1.0000 0.0000
vn 1.0000 0.0000 0.0000
vn 0.0000 -1.0000 0.0000
vn 0.0000 0.0000 -1.0000
vn 0.0000 -0.0000 1.0000
usemtl Material.003
s 1
f 1/1/1 2/2/1 3/3/1 4/4/1
f 4/4/2 3/3/2 5/5/2 6/6/2
f 6/6/3 5/5/3 7/7/3 8/8/3
f 8/8/4 7/7/4 2/9/4 1/10/4
f 4/11/5 6/6/5 8/8/5 1/12/5
f 5/5/6 3/13/6 2/14/6 7/7/6
