# Blender v2.92.0 OBJ File: ''
# www.blender.org
mtllib plane.mtl
o Cube_Cube.002
v -205.477737 -200.824249 -1.000009
v -205.477737 -200.824249 0.999991
v -205.477737 200.824249 -0.999991
v -205.477737 200.824249 1.000009
v 205.477737 -200.824249 -1.000009
v 205.477737 -200.824249 0.999991
v 205.477737 200.824249 -0.999991
v 205.477737 200.824249 1.000009
vt -0.064490 -1.841998
vt 1.064490 -1.841998
vt 1.064490 -0.670999
vt -0.064490 -0.670999
vt 1.064490 0.500000
vt -0.064490 0.500000
vt 1.064490 1.670999
vt -0.064490 1.670999
vt 1.064490 2.841998
vt -0.064490 2.841998
vt -1.193470 0.500000
vt -1.193470 1.670999
vt 2.193470 0.500000
vt 2.193470 1.670999
vn -1.0000 0.0000 0.0000
vn 0.0000 1.0000 0.0000
vn 1.0000 0.0000 0.0000
vn 0.0000 -1.0000 0.0000
vn 0.0000 0.0000 -1.0000
vn 0.0000 -0.0000 1.0000
usemtl Material.002
s off
f 1/1/1 2/2/1 4/3/1 3/4/1
f 3/4/2 4/3/2 8/5/2 7/6/2
f 7/6/3 8/5/3 6/7/3 5/8/3
f 5/8/4 6/7/4 2/9/4 1/10/4
f 3/11/5 7/6/5 5/8/5 1/12/5
f 8/5/6 4/13/6 2/14/6 6/7/6
