# Blender v2.92.0 OBJ File: ''
# www.blender.org
mtllib plane_grass.mtl
o Cube_Cube.001
v -205.477737 -200.824249 -1.000075
v -205.477737 -200.824249 0.999925
v -205.477737 200.824249 1.000075
v -205.477737 200.824249 -0.999925
v 205.477737 200.824249 1.000075
v 205.477737 200.824249 -0.999925
v 205.477737 -200.824249 0.999925
v 205.477737 -200.824249 -1.000075
vt 0.345343 -0.466830
vt 0.654657 -0.466830
vt 0.654657 0.016585
vt 0.345343 0.016585
vt 0.654657 0.500000
vt 0.345343 0.500000
vt 0.654657 0.983415
vt 0.345343 0.983415
vt 0.654657 1.466830
vt 0.345343 1.466830
vt 0.036030 0.500000
vt 0.036030 0.983415
vt 0.963970 0.500000
vt 0.963970 0.983415
vn -1.0000 0.0000 0.0000
vn 0.0000 1.0000 0.0000
vn 1.0000 0.0000 0.0000
vn 0.0000 -1.0000 0.0000
vn 0.0000 0.0000 -1.0000
vn 0.0000 -0.0000 1.0000
usemtl Material.004
s 1
f 1/1/1 2/2/1 3/3/1 4/4/1
f 4/4/2 3/3/2 5/5/2 6/6/2
f 6/6/3 5/5/3 7/7/3 8/8/3
f 8/8/4 7/7/4 2/9/4 1/10/4
f 4/11/5 6/6/5 8/8/5 1/12/5
f 5/5/6 3/13/6 2/14/6 7/7/6
