# Blender v2.92.0 OBJ File: ''
# www.blender.org
mtllib treetrunk.mtl
o MODELS_bin_031:poly000
v 3.585938 5.242198 -28.597660
v 0.546875 7.578135 -29.949217
v 4.562500 2.246102 -25.769529
v 0.281250 5.035164 -26.476561
v -3.101563 5.066416 -30.031250
v -4.277344 2.742196 -26.554689
v -7.070313 4.937510 -32.683590
v -4.593750 -2.367180 -26.039061
v -6.621094 -1.214834 -30.542971
v 6.734375 -0.691396 -29.121090
v 4.289063 -2.859367 -25.906250
v 6.847656 -4.539053 -30.039061
v -0.453125 -6.929678 -31.195314
v -0.285156 -5.167961 -25.871090
v 8.285156 3.398448 -30.855471
v 0.000000 0.000008 -26.636721
v -7.273438 -3.808584 -31.492189
v -3.554688 -2.082025 -17.046881
v -0.222656 -4.261713 -17.046881
v 3.328125 -2.468744 -17.046881
v -0.214844 -4.503909 9.152342
v 3.152344 -2.800783 9.152344
v 0.613281 -5.542978 27.546881
v 3.601563 -2.429696 22.351561
v -3.332031 1.890631 -17.046881
v 0.218750 3.683600 -17.046881
v 3.550781 1.503912 -17.046881
v -2.699219 -2.707041 29.765631
v -3.375000 -2.433596 9.152344
v -2.269531 1.789053 31.449221
v -3.164063 1.332027 9.152344
v 0.203125 3.035154 9.152346
v 0.156250 3.269521 28.945311
v 3.363281 0.964841 9.152344
v 2.808594 1.664055 24.402340
v 0.000000 -0.000008 21.886721
vt 0.999000 0.174800
vt 0.999000 0.036100
vt 0.857400 0.372100
vt 0.872100 0.058600
vt 0.999000 0.170900
vt 0.842800 0.280300
vt 1.000000 0.285200
vt 0.849600 0.604500
vt 0.998000 0.578100
vt 1.001000 0.522500
vt 0.845700 0.560500
vt 1.002900 0.679700
vt 1.000000 0.976600
vt 0.844700 0.826200
vt 1.000000 0.380900
vt 0.595700 0.713900
vt 0.687500 0.779300
vt 0.623000 0.633800
vt 0.695300 0.627900
vt 0.757800 0.622100
vt 0.570300 0.791000
vt 0.614300 0.869100
vt 0.998000 0.745100
vt 0.692400 0.564500
vt 0.692400 0.794900
vt 0.692400 0.592800
vt 0.256800 0.885700
vt 0.203100 0.664100
vt 0.004900 0.915000
vt 0.003900 0.531200
vt 0.692400 0.296900
vt 0.692400 0.059600
vt 0.692400 0.335000
vt 0.021500 0.502000
vt 0.256800 0.637700
vt 0.018600 0.155300
vt 0.256800 0.313500
vt 0.256800 0.068400
vt 0.000000 -0.003900
vt 0.256800 0.339800
vt -0.002000 0.183600
vt 0.652300 0.936500
vt 0.770500 0.923800
vt 0.613300 0.415000
vt 0.355500 0.410200
vt 0.745100 0.619100
vt 0.356400 0.576200
vt 0.871100 0.585900
vt 0.868200 0.750000
vt 0.535200 0.755900
vt 0.822300 0.767600
vt 0.803700 0.725600
vn 0.2483 0.7065 0.6627
vn 0.3830 0.7311 0.5647
vn -0.5032 0.7151 0.4852
vn -0.4166 0.8145 0.4036
vn -0.3257 0.8332 0.4469
vn -0.8977 0.0989 0.4294
vn -0.8943 0.0874 0.4388
vn 0.8250 -0.1080 0.5547
vn 0.2051 -0.8559 0.4748
vn 0.4354 -0.8587 0.2704
vn -0.5307 -0.7995 0.2813
vn 0.5182 0.6703 0.5312
vn 0.8120 -0.0618 0.5804
vn 0.8121 -0.0616 0.5803
vn 0.8132 -0.0593 0.5790
vn 0.8133 -0.0591 0.5788
vn 0.0937 -0.4044 -0.9098
vn 0.2952 -0.4005 -0.8675
vn 0.5482 -0.2073 -0.8102
vn -0.4430 -0.0321 -0.8959
vn -0.3576 -0.2464 -0.9008
vn -0.9026 0.0716 0.4246
vn -0.3941 -0.8221 0.4110
vn -0.5453 -0.8335 0.0894
vn -0.5453 -0.8335 0.0895
vn -0.5452 -0.8335 0.0895
vn 0.4493 -0.8891 0.0880
vn 0.4491 -0.8891 0.0881
vn 0.4490 -0.8892 0.0881
vn 0.4507 -0.8926 -0.0084
vn 0.4508 -0.8926 -0.0080
vn 0.4513 -0.8923 -0.0083
vn 0.4502 -0.8901 -0.0706
vn 0.7174 -0.6967 -0.0048
vn -0.9919 0.0720 0.1051
vn -0.4476 0.8856 0.1238
vn -0.4474 0.8857 0.1239
vn -0.4475 0.8857 0.1239
vn -0.4473 0.8858 0.1240
vn 0.5272 0.8407 0.1240
vn 0.5425 0.8294 0.1335
vn 0.9923 -0.0561 0.1103
vn 0.9923 -0.0558 0.1102
vn 0.9923 -0.0560 0.1103
vn 0.9924 -0.0556 0.1101
vn 0.4494 -0.8890 0.0879
vn -0.6554 -0.7552 -0.0132
vn -0.5480 -0.8365 0.0069
vn -0.9960 0.0826 0.0337
vn -0.9977 0.0559 0.0389
vn -0.4513 0.8923 -0.0002
vn -0.4512 0.8921 0.0219
vn -0.4512 0.8922 0.0219
vn -0.4507 0.8924 0.0218
vn -0.4506 0.8924 0.0218
vn -0.5294 0.8483 -0.0113
vn 0.5480 0.8364 -0.0086
vn 0.4897 0.8716 -0.0222
vn 0.9977 -0.0559 0.0389
vn 0.9772 0.2089 -0.0391
vn -0.3192 0.2110 -0.9239
vn -0.0485 0.5511 -0.8330
vn 0.6978 -0.6557 0.2883
vn 0.9472 -0.1879 0.2599
vn 0.1625 -0.8967 0.4118
vn -0.4176 -0.4703 0.7774
vn 0.3789 0.6814 0.6262
vn 0.4713 0.1961 -0.8599
vn 0.5256 -0.2451 -0.8147
vn -0.9921 0.0556 0.1129
vn -0.9984 0.0560 0.0076
vn -0.9984 0.0559 0.0076
vn -0.5480 -0.8365 -0.0076
vn -0.5479 -0.8365 -0.0076
vn -0.5475 -0.8368 -0.0075
vn -0.5474 -0.8368 -0.0075
vn 0.5479 0.8363 0.0210
vn 0.5478 0.8363 0.0210
vn 0.5474 0.8366 0.0211
vn 0.5473 0.8367 0.0211
vn 0.9984 -0.0559 0.0060
vn 0.9984 -0.0560 0.0060
vn 0.2717 0.5164 -0.8121
vn 0.7358 0.5220 0.4314
usemtl None
s 1
f 1/1/1 2/2/1 3/3/1
f 3/3/2 2/2/2 4/4/2
f 2/2/3 5/5/3 4/4/3
f 4/4/4 5/5/4 6/6/4
f 6/6/5 5/5/5 7/7/5
f 8/8/6 6/6/6 9/9/6
f 9/9/7 6/6/7 7/7/7
f 10/10/8 11/11/8 12/12/8
f 12/12/9 11/11/9 13/13/9
f 11/11/10 14/14/10 13/13/10
f 13/13/11 14/14/11 8/8/11
f 1/1/12 3/3/12 15/15/12
f 15/15/13 3/3/14 10/10/15
f 3/3/14 11/11/16 10/10/15
f 1/16/17 16/17/17 2/18/17
f 2/18/18 16/17/18 5/19/18
f 16/17/19 7/20/19 5/19/19
f 1/16/20 15/21/20 16/17/20
f 16/17/21 15/21/21 10/22/21
f 9/9/22 17/23/22 8/8/22
f 8/8/23 17/23/23 13/13/23
f 8/8/24 14/14/24 18/24/25
f 18/24/25 14/14/24 19/25/26
f 14/14/27 20/26/28 19/25/29
f 19/25/30 20/26/31 21/27/32
f 20/26/31 22/28/32 21/27/32
f 21/27/33 22/28/33 23/29/33
f 22/28/34 24/30/34 23/29/34
f 8/8/35 25/31/35 6/6/35
f 6/6/36 25/31/37 4/4/38
f 25/31/37 26/32/39 4/4/38
f 4/4/40 26/32/40 3/3/40
f 26/32/41 27/33/41 3/3/41
f 3/3/42 27/33/43 11/11/44
f 27/33/43 20/26/45 11/11/44
f 11/11/46 20/26/28 14/14/27
f 23/29/47 28/34/47 21/27/47
f 21/27/48 28/34/48 29/35/48
f 28/34/49 30/36/49 29/35/49
f 29/35/50 30/36/50 31/37/50
f 30/36/51 32/38/51 31/37/51
f 31/37/52 32/38/53 25/31/54
f 32/38/53 26/32/55 25/31/54
f 30/36/56 33/39/56 32/38/56
f 32/38/57 33/39/57 34/40/57
f 33/39/58 35/41/58 34/40/58
f 34/40/59 35/41/59 22/28/59
f 35/41/60 24/30/60 22/28/60
f 10/22/61 12/42/61 16/17/61
f 16/17/62 12/42/62 13/43/62
f 33/44/63 30/45/63 36/46/63
f 36/46/64 30/45/64 28/47/64
f 33/44/65 36/46/65 35/48/65
f 35/48/66 36/46/66 24/49/66
f 36/46/67 23/50/67 24/49/67
f 17/51/68 9/52/68 16/17/68
f 16/17/69 9/52/69 7/20/69
f 8/8/70 18/24/70 25/31/70
f 25/31/71 18/24/71 31/37/72
f 18/24/71 29/35/72 31/37/72
f 21/27/73 29/35/74 19/25/75
f 19/25/75 29/35/74 18/24/76
f 32/38/77 34/40/78 26/32/79
f 26/32/79 34/40/78 27/33/80
f 34/40/81 22/28/81 27/33/82
f 27/33/82 22/28/81 20/26/82
f 16/17/83 13/43/83 17/51/83
f 36/46/84 28/47/84 23/50/84
